# xmcd
#
# Track frame offsets:
#	150
#	35171
#	45716
#	51504
#	75647
#	107711
#	137175
#
# Disc length: 1910 seconds
#
# Revision: 1
# Processed by: cddbd v1.5.2PL0 Copyright (c) Steve Scherf et al.
# Submitted via: audiograbber 1.83.01
#
DISCID=62077407
DTITLE=Grateful Dead - 73-12-12 The Omni, Atlanta GA
DYEAR=1900
DGENRE=
TTITLE0=Rip It Up
TTITLE1=Blue Suede Shoes
TTITLE2=Tuning
TTITLE3=Peggy-O
TTITLE4=Jack Straw
TTITLE5=Cumberland Blues
TTITLE6=Thirty Days
EXTD=
EXTT0=
EXTT1=
EXTT2=
EXTT3=
EXTT4=
EXTT5=
EXTT6=
PLAYORDER=
